<svg xmlns="http://www.w3.org/2000/svg" viewBox="0 0 960 620" font-family="-apple-system, BlinkMacSystemFont, 'Segoe UI', Roboto, Helvetica, Arial, sans-serif">
  <rect width="960" height="620" fill="white"/>

  <!-- Title -->
  <text x="480" y="28" text-anchor="middle" font-size="16" font-weight="600" fill="#222">DesignSafe Compute Environments</text>

  <!-- ==================== PORTAL BAR ==================== -->
  <rect x="140" y="46" width="680" height="44" rx="22" fill="#f1f5f9" stroke="#94a3b8" stroke-width="1"/>
  <text x="480" y="63" text-anchor="middle" font-size="10.5" font-weight="500" fill="#475569">🌐  DesignSafe Web Portal</text>
  <text x="480" y="79" text-anchor="middle" font-size="9" fill="#94a3b8">Launch tools · Submit jobs · Manage data · Publish datasets</text>

  <!-- Connector lines from portal -->
  <line x1="260" y1="90" x2="155" y2="118" stroke="#cbd5e1" stroke-width="1"/>
  <line x1="480" y1="90" x2="480" y2="118" stroke="#cbd5e1" stroke-width="1"/>
  <line x1="700" y1="90" x2="805" y2="118" stroke="#cbd5e1" stroke-width="1"/>

  <!-- ==================== JUPYTERHUB ==================== -->
  <rect x="20" y="118" width="270" height="300" rx="6" fill="white" stroke="#93c5fd" stroke-width="1"/>
  <rect x="20" y="118" width="270" height="38" rx="6" fill="#dbeafe"/>
  <rect x="20" y="143" width="270" height="13" fill="#dbeafe"/>
  <circle cx="44" cy="137" r="11" fill="none" stroke="#F37626" stroke-width="1.8"/>
  <circle cx="44" cy="127" r="2" fill="#F37626"/>
  <circle cx="36" cy="144" r="2" fill="#F37626"/>
  <circle cx="52" cy="144" r="2" fill="#F37626"/>
  <text x="62" y="142" font-size="13" font-weight="600" fill="#1e40af">JupyterHub</text>

  <rect x="21" y="156" width="268" height="86" fill="#f0f7ff"/>
  <text x="272" y="170" text-anchor="end" font-size="8" fill="#93c5fd" font-weight="600">RESOURCES</text>
  <text x="38" y="186" font-size="10.5" fill="#334155">Standard: 8 cores · 20 GB RAM</text>
  <text x="38" y="202" font-size="10.5" fill="#334155">HPC Native (Stampede3): full node</text>
  <text x="38" y="218" font-size="10.5" fill="#334155">HPC Native (Vista): H200 GPUs</text>
  <text x="38" y="236" font-size="10" fill="#64748b">Standard starts immediately, no queue</text>

  <rect x="21" y="242" width="268" height="64" fill="#f8faff"/>
  <text x="272" y="256" text-anchor="end" font-size="8" fill="#93c5fd" font-weight="600">APPLICATIONS</text>
  <text x="38" y="271" font-size="10.5" fill="#334155">Python · R · Julia · OpenSeesPy</text>
  <text x="38" y="287" font-size="10.5" fill="#334155">dapi · tapipy · Jupyter notebooks</text>

  <rect x="21" y="306" width="268" height="111" fill="white"/>
  <text x="272" y="320" text-anchor="end" font-size="8" fill="#93c5fd" font-weight="600">USE WHEN</text>
  <text x="38" y="335" font-size="10.5" fill="#475569">Developing and testing code</text>
  <text x="38" y="351" font-size="10.5" fill="#475569">Pre/post-processing results</text>
  <text x="38" y="367" font-size="10.5" fill="#475569">Submitting HPC jobs via dapi</text>
  <text x="38" y="383" font-size="10.5" fill="#475569">Plotting and visualization</text>
  <text x="38" y="399" font-size="10.5" fill="#475569">GPU/AI/ML work (Vista native)</text>

  <!-- ==================== VIRTUAL MACHINES ==================== -->
  <rect x="320" y="118" width="320" height="300" rx="6" fill="white" stroke="#d8b4fe" stroke-width="1"/>
  <rect x="320" y="118" width="320" height="38" rx="6" fill="#f3e8ff"/>
  <rect x="320" y="143" width="320" height="13" fill="#f3e8ff"/>
  <rect x="342" y="127" width="17" height="12" rx="2" fill="none" stroke="#7c3aed" stroke-width="1.3"/>
  <line x1="348" y1="139" x2="353" y2="139" stroke="#7c3aed" stroke-width="1.3"/>
  <line x1="350.5" y1="139" x2="350.5" y2="143" stroke="#7c3aed" stroke-width="1.3"/>
  <line x1="346" y1="143" x2="355" y2="143" stroke="#7c3aed" stroke-width="1.3"/>
  <text x="366" y="142" font-size="13" font-weight="600" fill="#7c3aed">Virtual Machines</text>

  <rect x="321" y="156" width="318" height="86" fill="#faf5ff"/>
  <text x="622" y="170" text-anchor="end" font-size="8" fill="#d8b4fe" font-weight="600">RESOURCES</text>
  <text x="338" y="186" font-size="10.5" fill="#334155">Up to 48 cores · 49 GB RAM</text>
  <text x="338" y="202" font-size="10.5" fill="#334155">Single node · shared across users</text>
  <text x="338" y="218" font-size="10.5" fill="#334155">Interactive or submit-only</text>
  <text x="338" y="236" font-size="10" fill="#64748b">No queue · DCV desktop available</text>

  <rect x="321" y="242" width="318" height="64" fill="#fdf8ff"/>
  <text x="622" y="256" text-anchor="end" font-size="8" fill="#d8b4fe" font-weight="600">APPLICATIONS</text>
  <text x="338" y="271" font-size="10.5" fill="#334155">MATLAB · OpenSees · ADCIRC</text>
  <text x="338" y="287" font-size="10.5" fill="#334155">STKO (DCV) · QGIS (DCV)</text>

  <rect x="321" y="306" width="318" height="111" fill="white"/>
  <text x="622" y="320" text-anchor="end" font-size="8" fill="#d8b4fe" font-weight="600">USE WHEN</text>
  <text x="338" y="335" font-size="10.5" fill="#475569">Quick serial model tests</text>
  <text x="338" y="351" font-size="10.5" fill="#475569">Interactive MATLAB or ADCIRC session</text>
  <text x="338" y="367" font-size="10.5" fill="#475569">Exploring spatial data in QGIS</text>
  <text x="338" y="383" font-size="10.5" fill="#475569">Building models in STKO desktop</text>
  <text x="338" y="399" font-size="10.5" fill="#475569">Visualizing results in ParaView</text>

  <!-- ==================== HPC ==================== -->
  <rect x="670" y="118" width="270" height="300" rx="6" fill="white" stroke="#6ee7b7" stroke-width="1"/>
  <rect x="670" y="118" width="270" height="38" rx="6" fill="#d1fae5"/>
  <rect x="670" y="143" width="270" height="13" fill="#d1fae5"/>
  <rect x="692" y="125" width="18" height="5" rx="1" fill="none" stroke="#065f46" stroke-width="1"/>
  <rect x="692" y="132" width="18" height="5" rx="1" fill="none" stroke="#065f46" stroke-width="1"/>
  <rect x="692" y="139" width="18" height="5" rx="1" fill="none" stroke="#065f46" stroke-width="1"/>
  <circle cx="696" cy="127.5" r="1" fill="#065f46"/>
  <circle cx="696" cy="134.5" r="1" fill="#065f46"/>
  <circle cx="696" cy="141.5" r="1" fill="#065f46"/>
  <circle cx="706" cy="127.5" r="1" fill="#10b981"/>
  <circle cx="706" cy="134.5" r="1" fill="#10b981"/>
  <circle cx="706" cy="141.5" r="1" fill="#10b981"/>
  <text x="716" y="142" font-size="13" font-weight="600" fill="#065f46">HPC at TACC</text>

  <rect x="671" y="156" width="268" height="86" fill="#ecfdf5"/>
  <text x="805" y="160" text-anchor="middle" font-size="8.5" fill="#64748b">Stampede3 · Frontera · Lonestar6</text>
  <text x="922" y="170" text-anchor="end" font-size="8" fill="#6ee7b7" font-weight="600">RESOURCES</text>
  <text x="688" y="186" font-size="10.5" fill="#334155">Up to thousands of cores</text>
  <text x="688" y="202" font-size="10.5" fill="#334155">Multi-node · MPI parallel</text>
  <text x="688" y="218" font-size="10.5" fill="#334155">GPU nodes (Intel, NVIDIA A100)</text>
  <text x="688" y="236" font-size="10" fill="#64748b">SLURM queue · dedicated allocation</text>

  <rect x="671" y="242" width="268" height="64" fill="#f0fdf4"/>
  <text x="922" y="256" text-anchor="end" font-size="8" fill="#6ee7b7" font-weight="600">APPLICATIONS</text>
  <text x="688" y="271" font-size="10.5" fill="#334155">OpenSees MP · OpenFOAM · ADCIRC</text>
  <text x="688" y="287" font-size="10.5" fill="#334155">LS-DYNA · MPM · SimCenter tools</text>

  <rect x="671" y="306" width="268" height="111" fill="white"/>
  <text x="922" y="320" text-anchor="end" font-size="8" fill="#6ee7b7" font-weight="600">USE WHEN</text>
  <text x="688" y="335" font-size="10.5" fill="#475569">Large nonlinear FE models</text>
  <text x="688" y="351" font-size="10.5" fill="#475569">CFD with domain decomposition</text>
  <text x="688" y="367" font-size="10.5" fill="#475569">Parameter sweeps (PyLauncher)</text>
  <text x="688" y="383" font-size="10.5" fill="#475569">Regional hazard simulations</text>
  <text x="688" y="399" font-size="10.5" fill="#475569">GPU-accelerated ML training</text>

  <!-- ==================== STORAGE ==================== -->
  <line x1="155" y1="418" x2="155" y2="470" stroke="#d97706" stroke-width="1"/>
  <line x1="480" y1="418" x2="380" y2="470" stroke="#d97706" stroke-width="1"/>
  <line x1="805" y1="418" x2="805" y2="470" stroke="#059669" stroke-width="1"/>
  <line x1="220" y1="418" x2="750" y2="470" stroke="#059669" stroke-width="1" stroke-dasharray="5,3"/>
  <line x1="740" y1="418" x2="520" y2="470" stroke="#d97706" stroke-width="1" stroke-dasharray="5,3"/>

  <rect x="132" y="438" width="42" height="14" rx="3" fill="white"/>
  <text x="153" y="448" text-anchor="middle" font-size="8" fill="#d97706">direct</text>
  <rect x="410" y="438" width="42" height="14" rx="3" fill="white"/>
  <text x="431" y="448" text-anchor="middle" font-size="8" fill="#d97706">direct</text>
  <rect x="784" y="438" width="42" height="14" rx="3" fill="white"/>
  <text x="805" y="448" text-anchor="middle" font-size="8" fill="#059669">native</text>
  <rect x="600" y="428" width="62" height="14" rx="3" fill="white"/>
  <text x="631" y="438" text-anchor="middle" font-size="8" fill="#d97706">via Tapis</text>
  <rect x="430" y="452" width="72" height="14" rx="3" fill="white"/>
  <text x="466" y="462" text-anchor="middle" font-size="8" fill="#059669">Work mounted</text>

  <!-- Corral box -->
  <rect x="20" y="470" width="580" height="64" rx="6" fill="#fffbeb" stroke="#fcd34d" stroke-width="1"/>
  <ellipse cx="48" cy="494" rx="8" ry="4" fill="none" stroke="#92400e" stroke-width="1"/>
  <line x1="40" y1="494" x2="40" y2="504" stroke="#92400e" stroke-width="1"/>
  <line x1="56" y1="494" x2="56" y2="504" stroke="#92400e" stroke-width="1"/>
  <ellipse cx="48" cy="504" rx="8" ry="4" fill="none" stroke="#92400e" stroke-width="1"/>
  <text x="68" y="496" font-size="12" font-weight="600" fill="#92400e">Corral (DesignSafe Storage)</text>
  <text x="68" y="511" font-size="10" fill="#a16207">Backed up · persistent · data and compute co-located</text>
  <text x="36" y="528" font-size="10" fill="#78716c">MyData  ·  MyProjects  ·  CommunityData  ·  Published</text>

  <!-- TACC filesystems box -->
  <rect x="630" y="470" width="310" height="64" rx="6" fill="#ecfdf5" stroke="#6ee7b7" stroke-width="1"/>
  <rect x="650" y="486" width="16" height="5" rx="1" fill="none" stroke="#065f46" stroke-width="0.8"/>
  <rect x="650" y="493" width="16" height="5" rx="1" fill="none" stroke="#065f46" stroke-width="0.8"/>
  <rect x="650" y="500" width="16" height="5" rx="1" fill="none" stroke="#065f46" stroke-width="0.8"/>
  <text x="674" y="496" font-size="12" font-weight="600" fill="#065f46">TACC Filesystems</text>
  <text x="674" y="511" font-size="10" fill="#64748b">Not backed up · high performance</text>
  <text x="646" y="528" font-size="10" fill="#78716c">Work ($WORK)  ·  Scratch ($SCRATCH)</text>

  <!-- Legend -->
  <line x1="40" y1="566" x2="70" y2="566" stroke="#666" stroke-width="1"/>
  <text x="76" y="569" font-size="9" fill="#666">Direct access (mounted)</text>
  <line x1="280" y1="566" x2="310" y2="566" stroke="#666" stroke-width="1" stroke-dasharray="5,3"/>
  <text x="316" y="569" font-size="9" fill="#666">Indirect access (Tapis stages files)</text>

  <!-- Tapis note -->
  <text x="480" y="600" text-anchor="middle" font-size="9" fill="#94a3b8">Tapis middleware orchestrates job submission, file staging, monitoring, and output archiving across all environments</text>
</svg>
